<svg width="24px" height="24px" viewBox="0 0 24 24" version="1.1" xmlns="http://www.w3.org/2000/svg" xmlns:xlink="http://www.w3.org/1999/xlink">
    <g id="Page-1" stroke="none" stroke-width="1" fill="none" fill-rule="evenodd">
        <g id="alconost-uikit" transform="translate(-223.000000, -52.000000)" fill="#D8D8D8" fill-rule="nonzero">
            <path d="M235,52 C241.627417,52 247,57.372583 247,64 C247,70.627417 241.627417,76 235,76 C228.372583,76 223,70.627417 223,64 C223,57.372583 228.372583,52 235,52 Z M236.593361,54.2406639 L235,54.2406639 L234.103734,54.7385892 L233.804979,55.3360996 L233.207469,55.5352697 L232.809129,55.7344398 L232.908714,56.033195 L233.207469,56.033195 L233.406639,56.5311203 L233.904564,56.3319502 L233.904564,57.0290456 L233.705394,57.0290456 L233.307054,56.9294606 L232.908714,57.0290456 L232.410788,57.626556 L231.713693,57.7261411 L231.614108,58.3236515 L231.912863,58.4232365 L231.813278,58.8215768 L231.215768,58.6224066 L230.618257,58.8215768 L230.419087,59.120332 L230.518672,59.8174274 L230.917012,60.0165975 L231.514523,60.0165975 L231.912863,59.9170124 L232.012448,59.6182573 L232.609959,58.8215768 L233.107884,58.9211618 L233.506224,58.5228216 L233.605809,58.8215768 L234.60166,59.5186722 L234.502075,59.7178423 L234.004149,59.7178423 L234.20332,59.9170124 L234.40249,59.9170124 L234.701245,59.8174274 L234.701245,59.4190871 L234.900415,59.3195021 L234.80083,59.219917 L234.103734,58.8215768 L233.904564,58.3236515 L234.502075,58.3236515 L234.701245,58.5228216 L235.19917,58.9211618 L235.19917,59.4190871 L235.697095,59.9170124 L235.896266,59.219917 L236.195021,59.0207469 L236.294606,59.6182573 L236.593361,60.0165975 L237.589212,60.0165975 L237.887967,60.2157676 L237.887967,60.7136929 L237.489627,61.0124481 L236.493776,61.0124481 L235.896266,60.6141079 L235.19917,60.7136929 L235.19917,61.1120332 L235,61.1120332 L234.80083,60.9128631 L233.705394,60.6141079 L232.211618,60.5145228 L231.813278,60.813278 L231.215768,60.813278 L230.917012,60.7136929 L230.219917,61.1120332 L230.219917,61.3112033 L228.825726,62.3070539 L228.925311,62.8049793 L229.224066,62.8049793 L229.124481,63.2033195 L228.925311,63.3029046 L228.925311,64.3983402 L230.120332,65.7925311 L230.618257,65.7925311 L230.618257,65.6929461 L231.614108,65.6929461 L231.912863,65.3941909 L232.410788,65.3941909 L232.709544,65.6929461 L233.506224,65.7925311 L233.506224,66.8879668 L234.40249,68.4813278 L233.904564,69.3775934 L233.904564,69.7759336 L234.302905,70.1742739 L234.302905,71.1701245 L234.80083,71.8672199 L234.80083,72.7634855 L236.294606,72.7634855 L237.390041,71.6680498 L237.688797,71.0705394 L238.087137,70.9709544 L238.087137,70.473029 L238.385892,70.1742739 L238.983402,69.3775934 L238.883817,67.9834025 L238.585062,67.4854772 L239.780083,66.2904564 L241.074689,64.3983402 L240.775934,64.2987552 L239.381743,64.5975104 L238.983402,64.3983402 L237.589212,61.7095436 L237.887967,61.6099585 L239.282158,63.3029046 L239.381743,63.7012448 L239.680498,64 L240.377593,64 L241.771784,63.2033195 L242.170124,62.9045643 L242.170124,62.5062241 L241.672199,62.406639 C241.672199,62.406639 239.979253,61.6099585 239.979253,61.6099585 L239.979253,60.9128631 L240.377593,60.9128631 L240.477178,61.4107884 L241.273859,61.8091286 L242.170124,61.8091286 L244.062241,62.1078838 L244.460581,62.406639 L244.460581,62.9045643 L244.360996,63.5020747 L245.356846,65.0954357 L245.446669,65.1252778 C245.486034,64.7555766 245.506224,64.3801461 245.506224,64 C245.506224,59.8528505 243.103364,56.2669191 239.613914,54.5584765 L239.282158,54.5394191 L238.485477,54.9377593 L238.385892,54.5394191 L238.186722,54.6390041 L237.987552,54.9377593 L237.589212,55.2365145 L236.593361,55.2365145 L236.593361,55.0373444 L237.688797,55.0373444 L237.887967,54.8381743 L236.593361,54.2406639 Z M240.875519,68.6804979 L240.477178,68.6804979 L240.078838,69.4771784 L239.381743,69.3775934 L239.381743,69.8755187 L239.680498,70.1742739 L239.481328,70.473029 L239.182573,70.7717842 L239.182573,71.3692946 L239.580913,71.6680498 L239.879668,71.1701245 L240.576763,70.1742739 L240.875519,68.6804979 Z M231.414938,55.93361 L231.016598,56.033195 L230.917012,56.2323651 L230.917012,56.4315353 L231.116183,56.6307054 L231.414938,56.7302905 L231.414938,56.9294606 L231.116183,57.0290456 L231.116183,57.526971 L231.414938,57.526971 L231.912863,57.4273859 L232.211618,57.1286307 L231.912863,57.0290456 L231.813278,56.8298755 L231.514523,56.5311203 L231.414938,55.93361 Z M230.817427,56.5311203 L230.518672,56.6307054 L230.219917,57.0290456 L230.219917,57.3278008 L230.518672,57.3278008 L231.016598,56.9294606 L231.016598,56.6307054 L230.817427,56.5311203 Z" id="map-grey"/>
        </g>
    </g>
</svg>